<?xml version="1.0" encoding="UTF-8"?>
<svg xmlns="http://www.w3.org/2000/svg" viewBox="0 0 640 360" role="img" aria-hidden="true">
  <rect width="640" height="360" fill="#ffffff"/>
  <rect width="320" height="360" fill="hsl(178 40% 97%)"/>
  <rect x="320" width="320" height="360" fill="#e8f7f4"/>
  <g transform="translate(0, 8)">
    <circle cx="268" cy="90" r="5" fill="#2ebfa5"/>
    <circle cx="268" cy="115" r="6" fill="#2ebfa5"/>
    <circle cx="268" cy="140" r="7" fill="#2ebfa5"/>
    <circle cx="268" cy="165" r="9" fill="#2ebfa5"/>
    <circle cx="268" cy="190" r="11" fill="#2ebfa5"/>
    <circle cx="268" cy="214" r="13" fill="#2ebfa5"/>
    <circle cx="268" cy="238" r="13" fill="#2ebfa5"/>
    <circle cx="268" cy="260" r="11" fill="#2ebfa5"/>
    <circle cx="268" cy="278" r="9" fill="#2ebfa5"/>
    <circle cx="268" cy="290" r="7" fill="#2ebfa5"/>
    <circle cx="268" cy="300" r="5" fill="#2ebfa5"/>
    <path d="M348 88 Q362 148 342 208 Q358 258 348 288" fill="none" stroke="#2ebfa5" stroke-width="6" stroke-linecap="round" stroke-linejoin="round"/>
    <circle cx="395" cy="248" r="7" fill="#2ebfa5"/>
    <circle cx="410" cy="268" r="6" fill="#2ebfa5"/>
    <circle cx="420" cy="288" r="5" fill="#2ebfa5"/>
    <path d="M348 210 Q390 230 420 288" fill="none" stroke="#2ebfa5" stroke-width="5" stroke-linecap="round" stroke-linejoin="round"/>
  </g>
</svg>
