<?xml version="1.0" encoding="UTF-8"?>
<svg xmlns="http://www.w3.org/2000/svg" viewBox="0 0 640 360" role="img" aria-hidden="true">
  <rect width="640" height="360" fill="#ffffff"/>
  <rect width="320" height="360" fill="hsl(192 40% 97%)"/>
  <rect x="320" width="320" height="360" fill="#e8f7f4"/>
  <g transform="translate(0, 8)">
    <circle cx="268" cy="110" r="5" fill="#2ebfa5"/>
    <circle cx="268" cy="135" r="6" fill="#2ebfa5"/>
    <circle cx="268" cy="160" r="8" fill="#2ebfa5"/>
    <circle cx="268" cy="182" r="9" fill="#2ebfa5"/>
    <circle cx="268" cy="200" r="10" fill="#2ebfa5"/>
    <circle cx="268" cy="218" r="10" fill="#2ebfa5"/>
    <circle cx="268" cy="235" r="9" fill="#2ebfa5"/>
    <circle cx="268" cy="250" r="8" fill="#2ebfa5"/>
    <circle cx="268" cy="265" r="7" fill="#2ebfa5"/>
    <circle cx="268" cy="278" r="6" fill="#2ebfa5"/>
    <circle cx="268" cy="290" r="5" fill="#2ebfa5"/>
    <path d="M348 110 Q358 170 348 230 Q355 280 348 292" fill="none" stroke="#2ebfa5" stroke-width="6" stroke-linecap="round" stroke-linejoin="round"/>
    <circle cx="248" cy="118" r="6" fill="#2ebfa5"/><circle cx="232" cy="95" r="7" fill="#2ebfa5"/><circle cx="252" cy="78" r="6" fill="#2ebfa5"/>
    <path d="M268 155 Q245 125 252 78" fill="none" stroke="#2ebfa5" stroke-width="5" stroke-linecap="round" stroke-linejoin="round"/>
  </g>
</svg>
