<svg viewBox="0 0 307.15770000000003 265.4386666666667" xmlns:xlink="http://www.w3.org/1999/xlink" version="1.1" xmlns="http://www.w3.org/2000/svg" data-name="Capa 1" id="Capa_1" style="max-height: 500px" width="307.15770000000003" height="265.4386666666667">
  <defs>
    <style>
      .cls-1 {
        fill: none;
      }

      .cls-1, .cls-2, .cls-3, .cls-4 {
        stroke-width: 0px;
      }

      .cls-5 {
        clip-path: url(#clippath-1);
      }

      .cls-2 {
        fill: #7189af;
      }

      .cls-6 {
        clip-path: url(#clippath);
      }

      .cls-3 {
        fill: #2a519a;
      }

      .cls-4 {
        fill: #8ba4cc;
      }
    </style>
    <clipPath id="clippath">
      <path d="M244.2,234.2c-13.2-39.7-66.5-88.1-82.1-101.7.2-.1.4-.2.6-.3,56.1-38.2,76-95.9,79.5-107.1l61.4,106.7-59.4,102.5h0Z" class="cls-1"/>
    </clipPath>
    <clipPath id="clippath-1">
      <polygon points="0 131.3 69.5 11.3 69.5 252 0 131.3" class="cls-1"/>
    </clipPath>
  </defs>
  <g>
    <path d="M367.6,199.5v-121.9h24.6v54.1l49.7-54.1h33.1l-45.9,47.4,48.4,74.4h-31.9l-33.5-57.2-20,20.4v36.8h-24.6,0Z" class="cls-3"/>
    <path d="M489.5,199.5v-121.9h24.6v121.9h-24.6,0Z" class="cls-3"/>
    <path d="M537.8,199.5v-121.9h24l49.9,81.4v-81.4h22.8v121.9h-24.7l-49.1-79.5v79.5h-22.9Z" class="cls-3"/>
    <path d="M660.5,199.5v-121.9h90.4v20.7h-65.7v27h61.2v20.6h-61.2v33.2h68.1v20.6h-92.8v-.2Z" class="cls-3"/>
    <path d="M767.8,159.9l24-2.4c1.4,8.1,4.4,13.9,8.8,17.7,4.4,3.8,10.3,5.7,17.9,5.7s13.9-1.7,17.9-5,6-7.3,6-11.7-.9-5.3-2.5-7.4-4.6-3.8-8.8-5.3c-2.9-1-9.5-2.8-19.7-5.3-13.2-3.2-22.5-7.3-27.7-12.1-7.4-6.7-11.2-14.9-11.2-24.5s1.8-12,5.3-17.4,8.6-9.5,15.2-12.3c6.7-2.8,14.6-4.2,24-4.2,15.3,0,26.8,3.3,34.6,10.1,7.7,6.7,11.8,15.7,12.2,26.9l-24.6,1.1c-1.1-6.3-3.3-10.8-6.7-13.5-3.5-2.7-8.7-4.1-15.6-4.1s-12.8,1.5-16.8,4.4c-2.6,1.9-3.9,4.4-3.9,7.5s1.2,5.3,3.7,7.4c3.1,2.6,10.7,5.3,22.6,8.1s20.8,5.8,26.6,8.8c5.8,3.1,10.2,7.2,13.5,12.4s4.9,11.7,4.9,19.4-1.9,13.6-5.9,19.6c-3.9,6.1-9.4,10.6-16.5,13.6s-15.9,4.5-26.5,4.5c-15.4,0-27.2-3.6-35.5-10.7-8.2-7.1-13.2-17.5-14.8-31.2h-.5Z" class="cls-3"/>
    <path d="M886.9,199.5v-121.9h24.6v121.9h-24.6Z" class="cls-3"/>
    <path d="M1013,154.7l23.9,7.5c-3.7,13.3-9.7,23.2-18.3,29.7-8.5,6.5-19.3,9.7-32.4,9.7s-29.5-5.5-39.9-16.6c-10.4-11-15.7-26.2-15.7-45.3s5.3-36.1,15.8-47.3,24.2-16.8,41.3-16.8,27,4.4,36.3,13.2c5.5,5.3,9.7,12.7,12.4,22.4l-24.3,5.8c-1.4-6.3-4.5-11.3-9-15-4.6-3.7-10.2-5.5-16.6-5.5s-16.4,3.2-22,9.7-8.4,17-8.4,31.5,2.8,26.3,8.3,32.9,12.8,9.8,21.6,9.8,12.2-2.1,16.9-6.2c4.7-4.2,8.1-10.7,10.2-19.6h0Z" class="cls-3"/>
    <path d="M1167.9,199.5h-26.8l-10.7-27.7h-48.7l-10.1,27.7h-26.1l47.4-121.9h26l48.8,121.9h.2ZM1122.5,151.3l-16.8-45.2-16.5,45.2h33.3Z" class="cls-3"/>
  </g>
  <path d="M107.5,0l108.2.2c-1.8,56.1-93.4,127.6-108.2,138.8V0Z" class="cls-3"/>
  <path d="M107.5,173.8c8.3-5,32.2-23.9,32.2-23.9h0c36.1,20.5,69.5,102,74,113.2l-106.2-.2v-89.1h0Z" class="cls-3"/>
  <g>
    <g>
      <path d="M244.2,234.2c-13.2-39.7-66.5-88.1-82.1-101.7.2-.1.4-.2.6-.3,56.1-38.2,76-95.9,79.5-107.1l61.4,106.7-59.4,102.5h0Z" class="cls-4"/>
      <g class="cls-6">
        <rect height="585.4" width="585.4" y="131.5" x="-198.3" class="cls-2"/>
      </g>
    </g>
    <g>
      <polygon points="0 131.3 69.5 11.3 69.5 252 0 131.3" class="cls-4"/>
      <g class="cls-5">
        <rect height="585.4" width="585.4" y="131.5" x="-198.3" class="cls-2"/>
      </g>
    </g>
  </g>
</svg>